<svg xmlns="http://www.w3.org/2000/svg" width="63" height="63" viewBox="0 0 63 63">
  <g id="Groupe_1229" data-name="Groupe 1229" transform="translate(-441 -2071)">
    <circle id="Ellipse_34" data-name="Ellipse 34" cx="31.5" cy="31.5" r="31.5" transform="translate(441 2071)" fill="#f39454" opacity="0.25"/>
    <path id="car-side-solid" d="M10.5,35.923h3.23v5.884H6.822l1.863-4.652A1.951,1.951,0,0,1,10.5,35.923Zm6.173,5.884V35.923H21.65a1.965,1.965,0,0,1,1.532.736L27.3,41.807Zm15.7.061-6.13-7.662A5.877,5.877,0,0,0,21.65,32H10.5a5.876,5.876,0,0,0-5.462,3.7l-2.55,6.381A3.926,3.926,0,0,0,0,45.73V52.6a1.959,1.959,0,0,0,1.961,1.961H4a5.888,5.888,0,0,0,11.61,0h8.005a5.888,5.888,0,0,0,11.61,0h2.041A1.959,1.959,0,0,0,39.23,52.6V49.653A7.853,7.853,0,0,0,32.377,41.869ZM26.646,52.6a2.942,2.942,0,1,1,1.793,3.755A2.942,2.942,0,0,1,26.646,52.6ZM9.807,50.634a2.942,2.942,0,1,1-2.942,2.942A2.942,2.942,0,0,1,9.807,50.634Z" transform="translate(452.885 2056.437)" fill="#f39454"/>
  </g>
</svg>
