<svg xmlns="http://www.w3.org/2000/svg" width="63" height="63" viewBox="0 0 63 63">
  <g id="Groupe_1228" data-name="Groupe 1228" transform="translate(-526 -2071)">
    <circle id="Ellipse_35" data-name="Ellipse 35" cx="31.5" cy="31.5" r="31.5" transform="translate(526 2071)" fill="#f39454" opacity="0.25"/>
    <path id="briefcase-solid" d="M10.527,2.746h8.238a.459.459,0,0,1,.458.458V5.492H10.069V3.2A.459.459,0,0,1,10.527,2.746Zm-3.2.458V5.492H3.661A3.665,3.665,0,0,0,0,9.154v5.492H29.291V9.154A3.665,3.665,0,0,0,25.63,5.492H21.968V3.2a3.206,3.206,0,0,0-3.2-3.2H10.527A3.206,3.206,0,0,0,7.323,3.2ZM29.291,16.476H18.307v1.831a1.829,1.829,0,0,1-1.831,1.831H12.815a1.829,1.829,0,0,1-1.831-1.831V16.476H0V23.8a3.665,3.665,0,0,0,3.661,3.661H25.63A3.665,3.665,0,0,0,29.291,23.8Z" transform="translate(542.854 2088.437)" fill="#f39454"/>
  </g>
</svg>
