<svg xmlns="http://www.w3.org/2000/svg" width="63" height="63" viewBox="0 0 63 63">
  <g id="Groupe_1231" data-name="Groupe 1231" transform="translate(-778 -1842)">
    <g id="Groupe_1230" data-name="Groupe 1230" transform="translate(417 -229)">
      <circle id="Ellipse_33" data-name="Ellipse 33" cx="31.5" cy="31.5" r="31.5" transform="translate(361 2071)" fill="#f39454" opacity="0.25"/>
      <path id="house-chimney-solid" d="M29.166,15.425A1.729,1.729,0,0,0,30.882,13.7a1.469,1.469,0,0,0-.59-1.287L27.461,9.922V3.433a1.714,1.714,0,0,0-1.716-1.716H24.028a1.714,1.714,0,0,0-1.716,1.716V5.4L16.6.375A1.782,1.782,0,0,0,15.473,0a1.547,1.547,0,0,0-1.18.429L.536,12.416A1.743,1.743,0,0,0,0,13.7a1.7,1.7,0,0,0,1.716,1.722H3.433v3.738a1.356,1.356,0,0,0-.005.15v6a2.145,2.145,0,0,0,2.145,2.145h.858c.064,0,.129-.005.193-.011.08.005.161.011.241.011h3a2.145,2.145,0,0,0,2.145-2.145V20.6a1.714,1.714,0,0,1,1.716-1.716h3.433A1.714,1.714,0,0,1,18.879,20.6v4.72a2.145,2.145,0,0,0,2.145,2.145h3.03c.075,0,.15,0,.225-.005.059.005.118.005.177.005h.858a2.145,2.145,0,0,0,2.145-2.145v-.869a3.779,3.779,0,0,0,.027-.434L27.45,15.42h1.716Z" transform="translate(376.721 2088.437)" fill="#f39454"/>
    </g>
  </g>
</svg>
