<svg xmlns="http://www.w3.org/2000/svg" width="36" height="36" viewBox="0 0 36 36">
  <g id="Groupe_1292" data-name="Groupe 1292" transform="translate(-1590 -3809)">
    <circle id="Ellipse_42" data-name="Ellipse 42" cx="18" cy="18" r="18" transform="translate(1590 3809)" fill="#232826"/>
    <path id="instagram" d="M10.162,36.81a5.247,5.247,0,1,0,5.247,5.247A5.238,5.238,0,0,0,10.162,36.81Zm0,8.658a3.411,3.411,0,1,1,3.411-3.411,3.417,3.417,0,0,1-3.411,3.411ZM16.847,36.6a1.224,1.224,0,1,1-1.224-1.224A1.221,1.221,0,0,1,16.847,36.6Zm3.475,1.242a6.056,6.056,0,0,0-1.653-4.288A6.1,6.1,0,0,0,14.381,31.9c-1.69-.1-6.754-.1-8.443,0A6.087,6.087,0,0,0,1.65,33.545,6.076,6.076,0,0,0,0,37.833c-.1,1.69-.1,6.754,0,8.443A6.056,6.056,0,0,0,1.65,50.564a6.1,6.1,0,0,0,4.288,1.653c1.69.1,6.754.1,8.443,0a6.056,6.056,0,0,0,4.288-1.653,6.1,6.1,0,0,0,1.653-4.288C20.418,44.587,20.418,39.527,20.322,37.838ZM18.139,48.089a3.453,3.453,0,0,1-1.945,1.945c-1.347.534-4.544.411-6.032.411s-4.69.119-6.032-.411a3.453,3.453,0,0,1-1.945-1.945c-.534-1.347-.411-4.544-.411-6.032s-.119-4.69.411-6.032A3.453,3.453,0,0,1,4.129,34.08c1.347-.534,4.544-.411,6.032-.411s4.69-.119,6.032.411a3.453,3.453,0,0,1,1.945,1.945c.534,1.347.411,4.544.411,6.032S18.673,46.747,18.139,48.089Z" transform="translate(1597.841 3784.943)" fill="#e8eacd"/>
  </g>
</svg>
