<svg xmlns="http://www.w3.org/2000/svg" width="36" height="36" viewBox="0 0 36 36">
  <g id="Groupe_1293" data-name="Groupe 1293" transform="translate(-1728 -3809)">
    <circle id="Ellipse_43" data-name="Ellipse 43" cx="18" cy="18" r="18" transform="translate(1728 3809)" fill="#232826"/>
    <path id="tiktok" d="M19.828,9.233a9.24,9.24,0,0,1-5.4-1.726v7.861A7.15,7.15,0,1,1,8.26,8.283v3.954a3.282,3.282,0,1,0,2.3,3.131V0h3.871a5.33,5.33,0,0,0,.082.975h0A5.374,5.374,0,0,0,16.881,4.5a5.341,5.341,0,0,0,2.947.886Z" transform="translate(1736.022 3815.742)" fill="#e8eacd"/>
  </g>
</svg>
